<?xml version="1.0" standalone="no"?>
<!DOCTYPE svg PUBLIC "-//W3C//DTD SVG 20010904//EN"
 "http://www.w3.org/TR/2001/REC-SVG-20010904/DTD/svg10.dtd">
<svg version="1.0" xmlns="http://www.w3.org/2000/svg"
 width="340.000000pt" height="400.000000pt" viewBox="0 0 340.000000 400.000000"
 preserveAspectRatio="xMidYMid meet">
<metadata>
Created by potrace 1.15, written by Peter Selinger 2001-2017
</metadata>
<g transform="translate(0.000000,400.000000) scale(0.100000,-0.100000)"
fill="#000000" stroke="none">
<path d="M1490 3781 c-119 -38 -243 -195 -311 -396 -21 -61 -24 -89 -24 -210
l0 -140 36 -76 c23 -48 59 -99 97 -140 l60 -64 48 51 c27 27 66 64 88 80 l38
30 -26 54 -26 54 22 23 c42 44 144 103 253 143 61 23 114 46 120 51 16 16 31
10 43 -16 11 -24 10 -25 -18 -25 -30 0 -36 -11 -24 -44 5 -12 15 -15 43 -10
27 4 41 2 50 -10 12 -14 11 -20 -7 -37 -12 -11 -22 -26 -22 -34 0 -8 -4 -15
-10 -15 -5 0 -10 5 -10 12 0 6 -3 8 -7 5 -10 -10 37 -56 79 -78 20 -10 55 -21
78 -25 56 -9 71 -26 60 -65 -10 -33 -19 -48 -59 -91 -14 -16 -20 -28 -14 -28
6 0 25 16 42 35 17 19 32 35 34 35 3 0 15 -24 27 -52 30 -69 30 -139 0 -198
-41 -80 -192 -213 -257 -226 -18 -3 -56 5 -109 26 l-81 30 -29 62 c-16 34 -28
67 -26 75 2 7 -9 1 -23 -13 -20 -20 -32 -24 -52 -20 -94 24 -174 164 -112 197
12 6 38 9 58 5 l36 -6 -3 40 c-2 22 -8 40 -13 40 -5 0 -31 -11 -57 -24 -54
-28 -94 -66 -74 -73 6 -3 12 -20 12 -38 0 -22 11 -48 33 -76 47 -63 81 -80
175 -88 7 0 21 -15 31 -31 18 -30 18 -32 0 -68 -11 -20 -19 -42 -19 -48 0 -16
-114 -28 -199 -21 -142 12 -243 78 -332 216 -51 79 -52 101 -3 101 17 0 24 6
24 18 0 10 11 24 24 31 40 22 47 50 34 148 -10 78 -15 92 -42 119 -28 28 -30
34 -18 52 10 16 12 43 6 116 -6 83 -10 98 -31 118 -22 21 -33 23 -109 20 -85
-2 -85 -2 -73 20 8 15 10 52 5 120 -8 116 -16 141 -51 164 -24 16 -36 16 -193
0 -355 -36 -360 -36 -388 -65 -26 -26 -27 -27 -20 -134 7 -115 22 -161 56
-172 18 -6 19 -8 4 -30 -13 -19 -15 -45 -12 -121 3 -90 5 -97 31 -120 23 -19
26 -27 18 -43 -11 -19 7 -194 22 -218 4 -6 22 -18 40 -26 27 -13 50 -15 120
-9 75 7 87 6 87 -8 1 -36 17 -44 98 -45 44 -2 84 -5 90 -9 6 -3 33 -53 61
-109 110 -223 246 -388 374 -452 38 -19 85 -35 103 -35 33 0 45 -12 24 -25
-14 -9 -96 -163 -110 -209 -11 -34 -10 -41 9 -67 18 -24 20 -33 10 -51 -16
-29 -6 -144 16 -189 l18 -37 -31 -44 c-48 -70 -135 -144 -197 -167 -99 -37
-206 -21 -262 40 -25 28 -46 80 -63 162 -6 31 -15 59 -20 62 -5 3 -4 17 2 31
10 20 9 27 -3 35 -47 30 -224 53 -352 46 -103 -6 -171 -28 -214 -69 -30 -28
-29 -44 2 -64 22 -14 42 -16 134 -10 l107 6 2 -54 c6 -215 224 -423 474 -452
71 -8 175 17 258 63 82 45 214 178 256 256 l31 58 99 -77 c300 -234 508 -429
547 -514 31 -67 82 -225 98 -300 12 -58 26 -83 40 -74 5 3 9 -9 9 -26 0 -17 6
-33 13 -36 55 -21 343 199 396 304 11 22 23 58 27 80 5 33 3 42 -12 50 -30 15
-57 -1 -147 -88 -46 -44 -87 -80 -90 -80 -4 0 -30 35 -58 78 -82 122 -160 219
-255 322 -132 142 -309 343 -328 372 -9 14 -21 40 -26 57 -8 28 -6 33 14 41
44 16 75 143 101 421 l6 67 47 7 c25 4 72 15 104 25 32 10 58 17 58 16 0 0 -9
-62 -20 -136 -24 -169 -36 -330 -24 -330 5 0 60 -9 123 -20 63 -11 117 -17
121 -15 13 8 19 293 9 452 -5 87 -16 196 -24 243 -21 114 -64 255 -75 244 -10
-10 -73 -246 -91 -340 l-11 -62 -59 -16 c-32 -9 -80 -19 -106 -23 l-48 -5 3
126 3 126 25 -6 c23 -6 24 -4 24 40 0 38 3 46 18 46 19 0 62 39 62 56 0 6 26
18 58 28 136 42 328 150 448 252 l51 43 22 -39 22 -39 -37 -16 c-20 -8 -38
-15 -40 -15 -3 0 -33 -18 -68 -40 -53 -33 -65 -46 -75 -81 -14 -47 -11 -52 42
-69 l39 -12 -31 -32 c-17 -18 -31 -36 -31 -40 0 -13 230 -316 240 -316 9 0
260 285 260 296 0 4 -11 22 -25 40 -28 36 -29 35 43 49 35 7 36 15 16 88 -6
18 -85 81 -139 110 -59 32 -58 28 -30 102 18 50 22 71 14 81 -6 7 -9 28 -7 46
l3 33 -65 1 c-82 1 -134 -29 -150 -89 -9 -30 -28 -50 -107 -111 -148 -114
-322 -199 -460 -224 -61 -11 -67 -4 -21 23 59 34 164 148 183 198 24 64 17
156 -17 223 -17 34 -23 56 -17 65 24 39 -10 99 -57 99 -17 0 -31 15 -56 58
-18 31 -38 74 -44 94 l-12 37 116 77 c147 98 302 223 325 262 16 28 16 32 1
46 -31 31 -185 14 -363 -40 -47 -14 -102 -34 -122 -45 l-36 -18 -54 72 c-141
191 -266 277 -359 248z m115 -35 c59 -27 150 -120 218 -223 26 -39 47 -74 47
-77 0 -4 -15 -19 -32 -34 -102 -85 -349 -318 -382 -361 -30 -37 -43 -48 -52
-40 -19 15 -116 175 -146 239 -14 30 -31 80 -38 110 -11 52 -10 59 15 115 60
134 147 239 229 276 54 24 81 24 141 -5z m-745 -176 c25 -13 37 -58 45 -161 9
-130 24 -121 -294 -154 l-265 -27 -21 25 c-18 20 -23 43 -29 123 -10 138 -4
145 135 161 152 16 164 16 149 -2 -19 -23 -6 -163 19 -195 18 -24 23 -25 112
-22 106 3 139 15 152 56 7 22 5 33 -10 55 -23 30 -46 35 -120 26 -82 -10 -65
-27 25 -23 l77 3 3 -30 c4 -49 -8 -56 -109 -65 -114 -11 -123 -6 -133 96 -6
58 -4 72 12 93 17 23 30 27 118 37 54 6 103 12 107 13 5 0 17 -3 27 -9z m1315
-53 c-138 -57 -313 -159 -470 -274 -111 -81 -109 -79 103 114 115 104 174 133
357 177 94 22 96 18 10 -17z m200 -8 c-22 -22 -67 -62 -100 -88 -63 -50 -284
-201 -294 -201 -3 0 -13 18 -22 39 -16 37 -16 41 1 56 10 9 28 36 41 60 21 39
34 49 109 83 111 52 225 88 280 91 23 1 22 -1 -15 -40z m-1165 -167 c0 -38 69
-178 134 -272 l53 -78 -56 -65 -56 -65 -31 44 c-66 93 -92 244 -70 407 8 59
26 79 26 29z m-116 -101 c10 -11 16 -44 18 -109 3 -87 1 -95 -19 -112 -15 -12
-48 -20 -95 -24 -202 -18 -413 -38 -502 -46 -135 -14 -142 -9 -151 103 -8 99
-3 123 33 141 24 12 215 36 285 36 46 0 67 -31 67 -100 0 -89 -11 -96 -154
-105 -127 -8 -146 -5 -146 23 0 32 28 46 108 52 45 3 77 10 79 17 6 18 -145 5
-182 -16 -37 -21 -45 -63 -18 -93 17 -19 26 -20 123 -13 129 8 175 19 195 48
21 29 20 145 -1 175 -15 21 -14 22 18 23 18 0 89 6 158 13 139 13 162 11 184
-13z m36 -279 c39 -31 55 -196 23 -224 -13 -11 -85 -21 -273 -37 -454 -38
-424 -38 -453 -9 -21 21 -26 38 -32 112 -6 69 -5 91 6 101 9 7 69 17 154 24
77 7 154 14 170 17 l30 5 -3 -49 c-5 -67 13 -128 44 -149 22 -14 40 -15 149
-6 137 10 165 23 165 73 0 50 -47 67 -155 55 -99 -10 -83 -29 18 -21 75 6 85
5 101 -13 14 -15 15 -24 6 -40 -6 -12 -12 -21 -13 -22 -21 -7 -238 -14 -254
-8 -38 14 -59 143 -28 169 8 6 72 18 142 25 178 17 178 17 203 -3z m-42 -424
c62 -91 127 -152 200 -186 46 -21 75 -27 149 -30 69 -3 90 -7 87 -17 -6 -15
41 -55 65 -55 10 0 5 6 -11 14 -49 26 -50 27 -37 42 16 20 113 19 129 -1 11
-13 10 -18 -6 -30 -10 -8 -28 -15 -39 -15 -14 -1 -15 -3 -6 -7 8 -3 29 2 46
11 l32 17 86 -48 86 -48 1 -63 c1 -251 -53 -649 -92 -673 -35 -22 -217 65
-367 177 -82 59 -101 78 -101 99 0 28 30 94 87 191 34 58 42 66 80 76 23 5 48
17 55 26 11 14 10 15 -7 8 -11 -4 -51 -10 -90 -13 -56 -4 -81 -1 -125 16 -79
30 -164 102 -242 206 -80 106 -206 343 -186 350 42 14 88 23 120 24 36 1 40
-3 86 -71z m1698 -194 c9 -37 -37 -179 -77 -234 l-31 -43 -19 29 c-25 38 -69
176 -69 217 0 37 21 70 70 115 l35 32 42 -44 c23 -24 45 -56 49 -72z m-985 27
l56 -21 7 -53 c9 -78 8 -90 -8 -84 -37 14 -186 120 -186 132 0 8 4 25 10 39
10 28 15 27 121 -13z m-1191 -822 c149 -23 182 -48 79 -61 -30 -3 -85 -11
-124 -17 -38 -6 -96 -11 -129 -11 -51 0 -57 2 -51 18 4 9 9 26 12 37 3 11 6
26 9 33 4 15 112 16 204 1z m1935 -1038 c11 -11 4 -22 -48 -68 -57 -49 -168
-123 -209 -139 -15 -5 -18 0 -18 29 0 31 8 43 61 89 34 29 89 80 122 112 l61
59 9 -34 c5 -19 15 -40 22 -48z"/>
<path d="M2111 2783 c-2 -22 -65 -86 -98 -99 -60 -26 -153 -15 -153 17 0 19
-15 26 -23 12 -3 -5 -8 -24 -11 -43 -6 -31 -5 -33 7 -17 8 9 17 17 20 17 4 0
25 -25 47 -55 22 -30 51 -57 64 -61 30 -7 66 11 66 34 0 22 43 109 71 143 11
15 19 35 16 45 -3 11 -5 14 -6 7z"/>
<path d="M2320 2439 c-30 -10 -60 -21 -67 -23 -8 -4 -6 -23 9 -68 43 -137 59
-254 65 -498 5 -212 -6 -467 -23 -537 -5 -20 -11 -21 -53 -16 -48 5 -48 5 -55
-28 -3 -18 -3 -36 1 -40 14 -13 290 -89 323 -89 38 0 84 22 104 51 l14 21 12
-22 c16 -30 69 -60 109 -60 43 0 313 50 325 60 4 5 5 22 1 39 -6 30 -9 31 -57
31 l-51 0 6 248 c9 369 51 623 136 816 12 27 20 50 19 51 -2 1 -21 9 -43 18
-22 8 -57 23 -79 32 l-38 16 6 -25 c19 -81 21 -74 -21 -82 -55 -10 -56 -12
-28 -48 l25 -33 -139 -154 c-77 -85 -145 -154 -151 -154 -6 0 -67 74 -135 165
l-124 165 25 32 25 33 -28 10 c-15 6 -34 13 -42 15 -13 5 -12 9 5 73 8 27 -2
27 -76 1z"/>
<path d="M3131 2285 c-41 -99 -86 -271 -106 -410 -13 -98 -34 -352 -35 -428
l0 -28 78 6 c42 3 101 8 130 11 l52 5 0 172 c0 95 -7 235 -15 312 -18 174 -55
417 -65 428 -4 5 -22 -26 -39 -68z"/>
<path d="M2050 1442 c0 -22 3 -53 6 -70 l6 -30 110 -12 c127 -14 128 -13 128
61 l0 46 -111 17 c-61 10 -117 20 -125 23 -11 4 -14 -4 -14 -35z"/>
<path d="M3060 1411 l-65 -6 -3 -58 -3 -58 117 3 c132 3 122 -3 137 91 l6 37
-62 -2 c-34 -1 -91 -4 -127 -7z"/>
</g>
</svg>
